HIERARCHY
ROOT Hips
{
	OFFSET 0.000000 0.000000 0.000000
	CHANNELS 6 Xposition Yposition Zposition Zrotation Yrotation Xrotation 
	JOINT LHipJoint
	{
		OFFSET 0.000000 0.000000 0.000000
		CHANNELS 3 Zrotation Yrotation Xrotation
		JOINT LeftUpLeg
		{
			OFFSET 1.363060 -1.794630 0.839290
			CHANNELS 3 Zrotation Yrotation Xrotation
			JOINT LeftLeg
			{
				OFFSET 2.448110 -6.726130 0.000000
				CHANNELS 3 Zrotation Yrotation Xrotation
				JOINT LeftFoot
				{
					OFFSET 2.562200 -7.039590 0.000000
					CHANNELS 3 Zrotation Yrotation Xrotation
					JOINT LeftToeBase
					{
						OFFSET 0.157640 -0.433110 2.322550
						CHANNELS 3 Zrotation Yrotation Xrotation
						End Site
						{
							OFFSET 0.000000 0.000000 0.000000
						}
					}
				}
			}
		}
	}
	JOINT RHipJoint
	{
		OFFSET 0.000000 0.000000 0.000000
		CHANNELS 3 Zrotation Yrotation Xrotation
		JOINT RightUpLeg
		{
			OFFSET -1.305520 -1.794630 0.839290
			CHANNELS 3 Zrotation Yrotation Xrotation
			JOINT RightLeg
			{
				OFFSET -2.542530 -6.985550 0.000000
				CHANNELS 3 Zrotation Yrotation Xrotation
				JOINT RightFoot
				{
					OFFSET -2.568260 -7.056230 0.000000
					CHANNELS 3 Zrotation Yrotation Xrotation
					JOINT RightToeBase
					{
						OFFSET -0.164730 -0.452590 2.363150
						CHANNELS 3 Zrotation Yrotation Xrotation
						End Site
						{
							OFFSET 0.000000 0.000000 0.000000
						}
					}
				}
			}
		}
	}
	JOINT LowerBack
	{
		OFFSET 0.000000 0.000000 0.000000
		CHANNELS 3 Zrotation Yrotation Xrotation
		JOINT Spine
		{
			OFFSET 0.028270 2.035590 -0.193380
			CHANNELS 3 Zrotation Yrotation Xrotation
			JOINT Spine1
			{
				OFFSET 0.056720 2.048850 -0.042750
				CHANNELS 3 Zrotation Yrotation Xrotation
				JOINT Neck
				{
					OFFSET 0.000000 0.000000 0.000000
					CHANNELS 3 Zrotation Yrotation Xrotation
					JOINT Neck1
					{
						OFFSET -0.054170 1.746240 0.172020
						CHANNELS 3 Zrotation Yrotation Xrotation
						JOINT Head
						{
							OFFSET 0.104070 1.761360 -0.123970
							CHANNELS 3 Zrotation Yrotation Xrotation
							End Site
							{
								OFFSET 0.000000 0.000000 0.000000
							}
						}
					}
				}
				JOINT LeftShoulder
				{
					OFFSET 0.000000 0.000000 0.000000
					CHANNELS 3 Zrotation Yrotation Xrotation
					JOINT LeftArm
					{
						OFFSET 3.362410 1.200890 -0.311210
						CHANNELS 3 Zrotation Yrotation Xrotation
						JOINT LeftForeArm
						{
							OFFSET 4.983000 -0.000000 -0.000000
							CHANNELS 3 Zrotation Yrotation Xrotation
							JOINT LeftHand
							{
								OFFSET 3.483560 -0.000000 -0.000000
								CHANNELS 3 Zrotation Yrotation Xrotation
								JOINT LeftFingerBase
								{
									OFFSET 0.000000 0.000000 0.000000
									CHANNELS 3 Zrotation Yrotation Xrotation
									JOINT LeftHandIndex1
									{
										OFFSET 0.715260 -0.000000 -0.000000
										CHANNELS 3 Zrotation Yrotation Xrotation
										End Site
										{
											OFFSET 0.000000 0.000000 0.000000
										}
									}
								}
								JOINT LThumb
								{
									OFFSET 0.000000 0.000000 0.000000
									CHANNELS 3 Zrotation Yrotation Xrotation
									End Site
									{
										OFFSET 0.000000 0.000000 0.000000
									}
								}
							}
						}
					}
				}
				JOINT RightShoulder
				{
					OFFSET 0.000000 0.000000 0.000000
					CHANNELS 3 Zrotation Yrotation Xrotation
					JOINT RightArm
					{
						OFFSET -3.136600 1.374050 -0.404650
						CHANNELS 3 Zrotation Yrotation Xrotation
						JOINT RightForeArm
						{
							OFFSET -5.241900 -0.000000 -0.000000
							CHANNELS 3 Zrotation Yrotation Xrotation
							JOINT RightHand
							{
								OFFSET -3.444170 -0.000000 -0.000000
								CHANNELS 3 Zrotation Yrotation Xrotation
								JOINT RightFingerBase
								{
									OFFSET 0.000000 0.000000 0.000000
									CHANNELS 3 Zrotation Yrotation Xrotation
									JOINT RightHandIndex1
									{
										OFFSET -0.622530 -0.000000 -0.000000
										CHANNELS 3 Zrotation Yrotation Xrotation
										End Site
										{
											OFFSET 0.000000 0.000000 0.000000
										}
									}
								}
								JOINT RThumb
								{
									OFFSET 0.000000 0.000000 0.000000
									CHANNELS 3 Zrotation Yrotation Xrotation
									End Site
									{
										OFFSET 0.000000 0.000000 0.000000
									}
								}
							}
						}
					}
				}
			}
		}
	}
}
MOTION
Frames: 11
Frame Time: 0.008333
9.182433 15.952031 1.697252 -30.686483 -87.775255 52.414802 -12.722275 5.588862 0.776156 0.720954 7.357607 7.828932 -0.411291 0.978511 11.792569 0.806629 1.330407 20.022841 0.263600 0.000000 -92.460100 7.171010 -0.733841 6.471511 7.913047 9.147610 -60.582687 3.116367 -1.037634 21.691914 -0.327183 -1.512967 1.196799 -1.182800 0.000000 -47.895300 7.202950 -4.612132 -6.936726 1.281062 -5.396239 -4.288901 -5.417428 -5.538425 0.591160 6.164474 -10.002423 -6.997848 -2.761294 -0.218244 0.224980 0.000000 0.000000 0.000000 -2.280796 -1.638398 1.680107 -40.961135 -31.166421 8.478946 -1.097809 -66.642776 -0.069698 9.979273 -1.698006 -0.189379 -0.177717 0.458193 -0.000000 0.000000 0.000000 0.000000 0.000000 0.000000 0.000000 9.169020 -10.170587 2.616109 39.937425 -10.330703 -24.790217 4.070140 -1.597776 0.000066 -6.140693 3.266027 -0.186470 0.193799 -0.101504 -0.000000 0.000000 0.000000 0.000000 0.000000 0.000000 0.000000 
8.847471 15.942932 1.680711 -42.818963 -87.678087 64.540188 -13.142163 5.530569 0.897419 1.353514 7.154172 7.055039 -0.045703 1.079710 14.323740 1.076855 2.440855 22.407835 0.686000 0.000000 -88.716900 6.772435 -1.000457 6.425909 8.625810 10.234107 -60.898764 2.781969 -1.459595 25.178599 -0.513677 -2.419224 1.552488 -1.395601 0.000000 -44.515100 7.892465 -4.561594 -7.036003 1.434875 -5.414201 -4.324468 -5.428449 -5.562176 0.564981 6.031008 -9.745435 -7.049957 -2.788800 -0.219749 0.209165 0.000000 0.000000 0.000000 -2.788571 -1.362514 1.758723 -40.892709 -30.427306 8.667928 -1.136976 -66.925878 -0.070729 10.247180 -1.716065 -0.195834 -0.185081 0.454180 -0.000000 0.000000 0.000000 0.000000 0.000000 0.000000 0.000000 9.082515 -9.871502 2.621753 39.644963 -10.137909 -24.387894 4.085302 -1.778913 -0.000319 -6.364497 3.239341 -0.191474 0.193984 -0.100607 -0.000000 0.000000 0.000000 0.000000 0.000000 0.000000 0.000000 
8.518360 15.940925 1.661608 -52.062898 -87.450538 73.738021 -13.472134 5.385882 0.991808 1.871690 6.948736 6.107056 0.284731 1.138931 17.206458 1.341064 3.600454 24.346760 1.200400 -0.000000 -83.166700 6.457262 -1.239030 6.355881 9.363105 11.102166 -61.017503 2.486897 -1.821747 28.337352 -0.664173 -3.072668 1.608278 -1.521600 -0.000000 -41.157301 8.535893 -4.527218 -7.067332 1.574341 -5.443557 -4.344996 -5.460434 -5.596289 0.530204 5.950953 -9.437001 -7.096401 -2.825064 -0.221876 0.193825 0.000000 0.000000 0.000000 -3.253371 -1.120926 1.845160 -40.938190 -29.639125 8.959306 -1.180090 -67.064682 -0.071515 10.531748 -1.743781 -0.203489 -0.192883 0.448617 -0.000000 0.000000 0.000000 0.000000 0.000000 0.000000 0.000000 9.074534 -9.530469 2.632714 39.537941 -9.876200 -24.030169 4.094670 -1.953607 -0.000823 -6.607689 3.193348 -0.195780 0.193677 -0.099714 -0.000000 0.000000 0.000000 0.000000 0.000000 0.000000 0.000000 
8.196027 15.946908 1.640423 -59.163602 -87.161748 80.761563 -13.729810 5.181612 1.049833 2.289441 6.816915 4.944720 0.556829 1.171466 20.430660 1.585846 4.796503 25.684366 1.778199 0.000000 -76.171800 6.214858 -1.443421 6.265772 10.128444 11.772779 -60.913823 2.252058 -2.118702 31.104602 -0.780042 -3.487029 1.303593 -1.555101 0.000000 -38.124600 9.126477 -4.492939 -7.035035 1.694560 -5.465890 -4.351590 -5.511225 -5.621554 0.491691 5.918509 -9.085336 -7.137711 -2.868358 -0.224478 0.178959 0.000000 0.000000 0.000000 -3.675859 -0.893775 1.934817 -41.117306 -28.838597 9.358895 -1.228167 -67.015022 -0.071902 10.817003 -1.775592 -0.211449 -0.200705 0.441262 -0.000000 0.000000 0.000000 0.000000 0.000000 0.000000 0.000000 9.134563 -9.146228 2.649624 39.636365 -9.553311 -23.706598 4.099834 -2.087988 -0.001481 -6.869445 3.115444 -0.198486 0.193002 -0.098825 -0.000000 0.000000 0.000000 0.000000 0.000000 0.000000 0.000000 
7.880989 15.961588 1.616951 -64.648896 -86.860702 86.148429 -13.923918 4.940902 1.070010 2.593562 6.782919 3.552016 0.761010 1.194786 23.939920 1.802834 6.054395 26.347853 2.403300 0.000001 -68.360000 6.038250 -1.614994 6.160091 10.902661 12.248378 -60.588755 2.085208 -2.354817 33.462546 -0.863624 -3.677086 0.616184 -1.497900 0.000000 -35.590101 9.635984 -4.452831 -6.951138 1.789449 -5.472568 -4.346127 -5.577194 -5.629311 0.453647 5.930461 -8.700934 -7.171281 -2.917117 -0.227475 0.165595 0.000000 0.000000 0.000000 -4.044236 -0.678383 2.022886 -41.453517 -28.040706 9.865432 -1.281929 -66.742520 -0.071708 11.081561 -1.804724 -0.218618 -0.208039 0.431884 -0.000000 0.000000 0.000000 0.000000 0.000000 0.000000 0.000000 9.256142 -8.726481 2.670822 39.953360 -9.170559 -23.436308 4.100616 -2.174577 -0.002245 -7.143013 3.017528 -0.199792 0.192015 -0.098042 -0.000000 0.000000 0.000000 0.000000 0.000000 0.000000 0.000000 
7.573517 15.985517 1.590704 -68.935368 -86.589726 90.319228 -14.055692 4.684603 1.056155 2.751986 6.832284 1.942719 0.900828 1.225611 27.640025 1.991464 7.416424 26.354971 3.069599 0.000000 -60.514200 5.925724 -1.754712 6.039443 11.654262 12.520868 -60.048814 1.985127 -2.536949 35.415694 -0.917711 -3.659110 -0.435325 -1.360601 0.000000 -33.602900 10.029192 -4.405497 -6.827786 1.852504 -5.459458 -4.330886 -5.654472 -5.615669 0.416898 5.984049 -8.291525 -7.190460 -2.970342 -0.230890 0.155968 0.000000 0.000000 0.000000 -4.340448 -0.490137 2.104658 -41.968241 -27.230939 10.464898 -1.341573 -66.228508 -0.070759 11.301330 -1.823575 -0.223800 -0.214285 0.420276 -0.000000 0.000000 0.000000 0.000000 0.000000 0.000000 0.000000 9.434751 -8.279330 2.693870 40.495261 -8.728139 -23.261682 4.095685 -2.225586 -0.003004 -7.415997 2.933500 -0.201595 0.190713 -0.097572 -0.000000 0.000000 0.000000 0.000000 0.000000 0.000000 0.000000 
7.273460 16.019106 1.562121 -72.403235 -86.356614 93.655055 -14.134976 4.424278 1.011273 2.773433 6.955208 0.144887 0.990486 1.275332 31.428205 2.156189 8.889714 25.778713 3.753000 0.000000 -53.350100 5.865081 -1.871645 5.906644 12.376708 12.610113 -59.280115 1.949585 -2.668472 36.946426 -0.949163 -3.475662 -1.780795 -1.168100 -0.000000 -32.145900 10.308340 -4.347804 -6.673724 1.885519 -5.424155 -4.307068 -5.739811 -5.578578 0.385075 6.071061 -7.868137 -7.193157 -3.026906 -0.234677 0.150825 0.000000 0.000000 0.000000 -4.570166 -0.321324 2.178421 -42.668181 -26.429031 11.145004 -1.409434 -65.444233 -0.068957 11.455623 -1.828317 -0.225999 -0.219034 0.406461 -0.000000 0.000000 0.000000 0.000000 0.000000 0.000000 0.000000 9.660687 -7.815556 2.715464 41.257110 -8.224975 -23.165944 4.086370 -2.227590 -0.003674 -7.674814 2.880005 -0.204698 0.189180 -0.097371 -0.000000 0.000000 0.000000 0.000000 0.000000 0.000000 0.000000 
6.980155 16.062580 1.531328 -75.288888 -86.170187 96.394292 -14.166560 4.168649 0.941263 2.654531 7.127692 -1.804595 1.045541 1.349116 35.203533 2.303811 10.468570 24.706167 4.424200 0.000000 -47.288200 5.849662 -1.970312 5.763633 13.052420 12.533505 -58.275483 1.971557 -2.751523 38.043961 -0.963799 -3.167170 -3.321343 -0.947400 0.000000 -31.164599 10.471140 -4.278039 -6.497818 1.888978 -5.365481 -4.275731 -5.831848 -5.517112 0.361702 6.188170 -7.444220 -7.178596 -3.086716 -0.238852 0.150535 0.000000 0.000000 0.000000 -4.738534 -0.164554 2.242647 -43.548199 -25.647236 11.888061 -1.487678 -64.371603 -0.066263 11.528334 -1.817271 -0.224816 -0.221993 0.390515 -0.000000 0.000000 0.000000 0.000000 0.000000 0.000000 0.000000 9.934432 -7.349487 2.731371 42.224000 -7.659355 -23.098770 4.075236 -2.158047 -0.004168 -7.903278 2.866525 -0.209697 0.187504 -0.097261 -0.000000 0.000000 0.000000 0.000000 0.000000 0.000000 0.000000 
6.692845 16.115990 1.498634 -77.762281 -86.029832 98.706603 -14.156557 3.921947 0.851271 2.404645 7.332393 -3.869114 1.079497 1.447041 38.879191 2.439338 12.115878 23.200522 5.036500 0.000000 -42.333800 5.871420 -2.055059 5.614123 13.667700 12.319287 -57.028102 2.041908 -2.786348 38.694908 -0.967723 -2.781331 -4.937857 -0.725500 -0.000000 -30.589600 10.525571 -4.194704 -6.307861 1.865539 -5.283331 -4.238668 -5.929376 -5.431496 0.347089 6.330691 -7.027945 -7.144435 -3.150062 -0.243486 0.155856 0.000000 0.000000 0.000000 -4.853950 -0.020086 2.296142 -44.596441 -24.879576 12.665644 -1.577898 -63.009039 -0.062703 11.508789 -1.792054 -0.220053 -0.222932 0.372616 -0.000000 0.000000 0.000000 0.000000 0.000000 0.000000 0.000000 10.254413 -6.890837 2.737775 43.372292 -7.027487 -23.039803 4.063452 -2.016278 -0.004381 -8.082008 2.915210 -0.217792 0.185667 -0.097196 -0.000000 0.000000 0.000000 0.000000 0.000000 0.000000 0.000000 
6.410478 16.179031 1.464539 -79.921902 -85.923480 100.694326 -14.114290 3.683172 0.748646 2.047538 7.549624 -6.017555 1.103295 1.563782 42.371876 2.568628 13.785928 21.349070 5.546200 -0.000001 -38.642500 5.918230 -2.131552 5.465366 14.218043 12.011121 -55.538031 2.150817 -2.771805 38.882744 -0.967784 -2.374715 -6.507235 -0.524900 0.000000 -30.334100 10.494140 -4.096478 -6.114983 1.821009 -5.179255 -4.197913 -6.031499 -5.323528 0.343874 6.493127 -6.631467 -7.092946 -3.216922 -0.248568 0.166187 0.000000 0.000000 0.000000 -4.936209 0.126223 2.338422 -45.787378 -24.132953 13.451749 -1.681710 -61.360022 -0.058402 11.396089 -1.756585 -0.212308 -0.221844 0.353051 -0.000000 0.000000 0.000000 0.000000 0.000000 0.000000 0.000000 10.617369 -6.453998 2.730232 44.667918 -6.308083 -22.987300 4.051256 -1.822092 -0.004198 -8.191893 3.056329 -0.230980 0.183581 -0.097212 -0.000000 0.000000 0.000000 0.000000 0.000000 0.000000 0.000000 
6.135146 16.249961 1.417931 -92.138709 -85.855790 112.588042 -13.758175 3.462635 0.377576 1.129836 8.490646 -7.701807 1.098650 1.678136 45.229403 2.687487 15.561130 19.297517 6.005900 0.000001 -35.661600 6.222772 -2.107690 5.417445 14.172674 12.265737 -53.746830 2.197713 -2.736470 38.794985 -0.953869 -1.928243 -7.910948 -0.345200 -0.000000 -30.389300 10.132458 -3.816566 -5.707419 1.692759 -4.860728 -4.100529 -6.167656 -4.998016 0.337648 6.776836 -6.259674 -7.018294 -3.291703 -0.254234 0.179786 0.000000 0.000000 0.000000 -4.820380 0.316659 2.342442 -47.041865 -23.319063 14.200905 -1.769302 -59.477265 -0.052844 11.195762 -1.721649 -0.202692 -0.219605 0.328740 -0.000000 0.000000 0.000000 0.000000 0.000000 0.000000 0.000000 11.171790 -5.942493 2.732290 46.128784 -5.506110 -22.810896 4.043508 -1.522504 -0.003789 -8.215578 3.257132 -0.246363 0.181901 -0.098150 -0.000000 0.000000 0.000000 0.000000 0.000000 0.000000 0.000000 
